<svg xmlns="http://www.w3.org/2000/svg" viewBox="0 0 1024 1024" role="img" aria-label="NoteChange">
  <rect width="1024" height="1024" rx="220" fill="#102235"/>
  <path d="M262 238c0-31 25-56 56-56h232c31 0 56 25 56 56v380c0 31-25 56-56 56H318c-31 0-56-25-56-56V238Z" fill="#F5FAFC"/>
  <path d="M338 304h192M338 378h192M338 452h112" fill="none" stroke="#176B87" stroke-linecap="round" stroke-width="44"/>
  <path d="M464 412h209c31 0 56 25 56 56v318c0 31-25 56-56 56H441c-31 0-56-25-56-56V674" fill="#16705B" stroke="#102235" stroke-width="34" stroke-linejoin="round"/>
  <path d="m515 565 83-78 83 78M598 495v197" fill="none" stroke="#F5FAFC" stroke-linecap="round" stroke-linejoin="round" stroke-width="44"/>
  <path d="m661 689-83 78-83-78M578 759V562" fill="none" stroke="#C7F0DF" stroke-linecap="round" stroke-linejoin="round" stroke-width="34"/>
</svg>
